<svg xmlns="http://www.w3.org/2000/svg" width="205" height="154" fill="none" viewBox="0 0 205 154"><g clip-path="url(#clip0_73_138)"><path fill="#FF3E00" d="M200.908 39.364C195.23 31.066 184.181 28.717 176.277 34.1271L162.394 43.6327C160.518 44.9005 158.916 46.5644 157.69 48.5183C156.464 50.4721 155.641 52.6727 155.274 54.9796C154.652 58.8654 155.286 62.8589 157.075 66.3277C155.9 68.2448 155.108 70.3919 154.748 72.6394C154.377 74.9927 154.458 77.4004 154.987 79.7212C155.517 82.0421 156.483 84.2294 157.83 86.1549C163.509 94.4536 174.557 96.8017 182.461 91.3915L196.344 81.8863C198.219 80.6187 199.821 78.9547 201.047 77.0009C202.273 75.047 203.096 72.8462 203.463 70.5393C204.085 66.6535 203.452 62.6601 201.664 59.1909C202.839 57.2739 203.63 55.1268 203.99 52.8794C204.361 50.5262 204.28 48.1184 203.75 45.7975C203.221 43.4767 202.255 41.2893 200.908 39.364Z"/><path fill="#fff" d="M175.528 86.7422C171.03 88.024 166.244 86.2304 163.54 82.2502C162.729 81.092 162.148 79.7762 161.83 78.38C161.511 76.9839 161.462 75.5355 161.685 74.1198C161.761 73.655 161.868 73.1962 162.004 72.7468L162.258 71.902L162.981 72.4452C164.652 73.7002 166.515 74.6473 168.49 75.2458L169.012 75.405L168.971 75.9494C168.916 76.7237 169.125 77.4935 169.561 78.1224C169.958 78.7078 170.517 79.1515 171.163 79.3937C171.808 79.6359 172.509 79.6649 173.17 79.4767C173.473 79.388 173.762 79.2511 174.025 79.0708L187.912 69.5639C188.252 69.334 188.543 69.0325 188.765 68.6784C188.987 68.3244 189.137 67.9257 189.204 67.5077C189.27 67.081 189.255 66.6446 189.159 66.2238C189.064 65.8031 188.889 65.4065 188.645 65.0571C188.247 64.4716 187.688 64.0278 187.042 63.7855C186.397 63.5431 185.696 63.514 185.034 63.702C184.731 63.7908 184.443 63.9275 184.18 64.1075L178.881 67.7365C178.009 68.3317 177.056 68.7838 176.054 69.0772C171.557 70.359 166.771 68.5655 164.066 64.585C163.256 63.4268 162.675 62.1111 162.356 60.715C162.038 59.3188 161.989 57.8705 162.212 56.4548C162.433 55.0672 162.928 53.7435 163.665 52.5683C164.403 51.3932 165.367 50.3924 166.495 49.6301L180.381 40.1223C181.253 39.5261 182.207 39.0735 183.21 38.7801C187.707 37.4982 192.493 39.2918 195.197 43.2721C196.008 44.4303 196.589 45.7461 196.907 47.1422C197.226 48.5384 197.275 49.9868 197.052 51.4025C196.976 51.8672 196.869 52.3258 196.733 52.7752L196.48 53.6202L195.756 53.0778C194.085 51.8222 192.222 50.8746 190.247 50.276L189.725 50.1167L189.766 49.5725C189.82 48.7982 189.611 48.0286 189.176 47.3995C188.779 46.8141 188.22 46.3703 187.574 46.1281C186.929 45.8859 186.228 45.857 185.567 46.0452C185.264 46.1339 184.975 46.2708 184.712 46.4511L170.825 55.9583C170.485 56.188 170.195 56.4895 169.972 56.8435C169.75 57.1975 169.601 57.5962 169.534 58.0142C169.467 58.4408 169.482 58.8773 169.578 59.2981C169.674 59.719 169.848 60.1156 170.092 60.4649C170.49 61.0504 171.049 61.4943 171.695 61.7366C172.341 61.9789 173.042 62.008 173.703 61.82C174.006 61.7311 174.295 61.5942 174.558 61.4141L179.857 57.7866C180.728 57.1906 181.681 56.738 182.683 56.4447C187.18 55.163 191.967 56.9566 194.671 60.937C195.481 62.0952 196.063 63.4109 196.381 64.807C196.699 66.2031 196.748 67.6514 196.525 69.067C196.304 70.4547 195.809 71.7786 195.072 72.9539C194.334 74.1293 193.37 75.1303 192.242 75.893L178.356 85.4C177.484 85.9961 176.531 86.4488 175.528 86.7422Z"/></g><path fill="#303030" d="M20.5586 56.1908L39.7316 11.0391H50.4181L31.2176 56.1908H20.5586ZM59.3501 35.3493C59.3501 32.4696 58.9926 29.8526 58.2776 27.4983C57.5846 25.1441 56.6056 22.9159 55.3461 20.8139C54.0811 18.6909 52.5796 16.5994 50.8361 14.5394C49.0926 12.4584 48.2181 11.418 48.2181 11.418L56.3196 5.26953C56.3196 5.26953 57.3811 6.44672 59.5041 8.80094C61.6491 11.1342 63.5741 13.6986 65.2791 16.4943C66.9786 19.29 68.2711 22.2328 69.1566 25.3227C70.0366 28.4127 70.4766 31.7549 70.4766 35.3493C70.4766 39.0909 70.0146 42.5172 69.0906 45.6282C68.1666 48.7181 66.8411 51.6819 65.1196 54.5199C63.3926 57.3364 61.4951 59.8587 59.4106 62.0868C57.3536 64.3363 56.3196 65.4605 56.3196 65.4605L48.2181 59.312C48.2181 59.312 49.0816 58.272 50.8031 56.1908C52.5466 54.131 54.0646 52.0289 55.3461 49.8847C56.6496 47.7197 57.6341 45.4705 58.3106 43.1373C59.0036 40.783 59.3501 38.1871 59.3501 35.3493Z"/><path fill="url(#paint0_linear_73_138)" d="M82.5234 56.1908L101.696 11.0391H112.383L93.1824 56.1908H82.5234ZM121.315 35.3493C121.315 32.4696 120.957 29.8526 120.242 27.4983C119.549 25.1441 118.57 22.9159 117.311 20.8139C116.046 18.6909 114.544 16.5994 112.801 14.5394C111.057 12.4584 110.183 11.418 110.183 11.418L118.284 5.26953C118.284 5.26953 119.346 6.44672 121.469 8.80094C123.614 11.1342 125.539 13.6986 127.238 16.4943C128.943 19.29 130.236 22.2328 131.121 25.3227C132.001 28.4127 132.441 31.7549 132.441 35.3493C132.441 39.0909 131.979 42.5172 131.055 45.6282C130.131 48.7181 128.806 51.6819 127.084 54.5199C125.357 57.3364 123.454 59.8587 121.375 62.0868C119.318 64.3363 118.284 65.4605 118.284 65.4605L110.183 59.312C110.183 59.312 111.046 58.272 112.768 56.1908C114.511 54.131 116.024 52.0289 117.311 49.8847C118.614 47.7197 119.599 45.4705 120.27 43.1373C120.968 40.783 121.315 38.1871 121.315 35.3493Z"/><path fill="#F7402C" d="M11.165 112.381C11.165 115.261 11.5115 117.878 12.2045 120.232C12.8975 122.587 13.8765 124.825 15.136 126.948C16.3955 129.05 17.897 131.131 19.646 133.191C21.3895 135.272 22.2585 136.312 22.2585 136.312L14.157 142.461C14.157 142.461 13.0845 141.284 10.9395 138.93C8.8165 136.596 6.908 134.032 5.203 131.237C3.498 128.441 2.2055 125.498 1.3255 122.408C0.44 119.318 0 115.976 0 112.381C0 108.64 0.462 105.224 1.386 102.134C2.3155 99.0225 3.6355 96.0586 5.3625 93.242C7.084 90.4046 8.976 87.8713 11.0385 85.6432C13.1175 83.3943 14.157 82.2695 14.157 82.2695L22.2585 88.418C22.2585 88.418 21.3895 89.4586 19.646 91.5392C17.919 93.5995 16.4065 95.7121 15.103 97.8769C13.8215 100.021 12.8425 102.271 12.1715 104.625C11.5005 106.958 11.165 109.543 11.165 112.381ZM130.279 112.35C130.279 109.47 129.921 106.853 129.206 104.499C128.513 102.144 127.534 99.9157 126.274 97.8142C125.009 95.6906 123.508 93.5995 121.764 91.5392C120.021 89.4586 119.147 88.418 119.147 88.418L127.248 82.2695C127.248 82.2695 128.31 83.4465 130.433 85.8011C132.578 88.1342 134.502 90.6988 136.207 93.4945C137.907 96.2901 139.199 99.2326 140.085 102.323C140.965 105.413 141.405 108.755 141.405 112.35C141.405 116.091 140.943 119.518 140.019 122.628C139.095 125.718 137.77 128.682 136.048 131.52C134.321 134.337 132.423 136.859 130.339 139.087C128.282 141.337 127.248 142.461 127.248 142.461L119.147 136.312C119.147 136.312 120.01 135.272 121.731 133.191C123.475 131.131 124.993 129.029 126.274 126.885C127.578 124.72 128.562 122.471 129.239 120.138C129.932 117.784 130.279 115.188 130.279 112.35Z"/><path fill="#303030" d="M48.9 123.8C54.3676 123.8 58.8 119.368 58.8 113.9C58.8 108.432 54.3676 104 48.9 104C43.4324 104 39 108.432 39 113.9C39 119.368 43.4324 123.8 48.9 123.8Z"/><path fill="url(#paint1_linear_73_138)" d="M108.9 117.8C114.367 117.8 118.8 113.368 118.8 107.9C118.8 102.432 114.367 98 108.9 98C103.432 98 99 102.432 99 107.9C99 113.368 103.432 117.8 108.9 117.8Z"/><defs><linearGradient id="paint0_linear_73_138" x1="97.5" x2="160" y1="49" y2="76.5" gradientUnits="userSpaceOnUse"><stop stop-color="#303030"/><stop offset="1" stop-color="#FF2525"/></linearGradient><linearGradient id="paint1_linear_73_138" x1="101" x2="156.5" y1="112" y2="86" gradientUnits="userSpaceOnUse"><stop stop-color="#303030"/><stop offset="1" stop-color="#FF2727"/></linearGradient><clipPath id="clip0_73_138"><rect width="50" height="63.004" fill="#fff" transform="translate(154 31.5889) rotate(-0.674859)"/></clipPath></defs></svg>