<svg width="197" height="154" viewBox="0 0 197 154" fill="none" xmlns="http://www.w3.org/2000/svg">
<g clip-path="url(#clip0_73_138)">
<path d="M193.419 44.3166C188.048 37.0652 177.586 35.0205 170.095 39.7583L156.939 48.0824C155.162 49.1927 153.643 50.6491 152.48 52.3587C151.318 54.0683 150.536 55.9934 150.187 58.011C149.594 61.4095 150.191 64.9011 151.883 67.933C150.768 69.6104 150.016 71.4887 149.673 73.4543C149.32 75.5125 149.395 77.6179 149.894 79.6469C150.393 81.676 151.307 83.5879 152.58 85.2705C157.952 92.5226 168.413 94.5664 175.903 89.8287L189.06 81.5049C190.837 80.3947 192.356 78.9383 193.519 77.2287C194.681 75.519 195.463 73.5938 195.812 71.5762C196.404 68.1776 195.808 64.6861 194.117 61.6539C195.232 59.9766 195.983 58.0983 196.326 56.1328C196.68 54.0746 196.605 51.9692 196.105 49.9401C195.606 47.9111 194.692 45.9992 193.419 44.3166Z" fill="#FF3E00"/>
<path d="M169.342 85.7689C165.081 86.8937 160.55 85.3294 157.992 81.8511C157.226 80.839 156.676 79.6888 156.376 78.4682C156.075 77.2476 156.03 75.9811 156.243 74.7429C156.315 74.3364 156.416 73.9351 156.545 73.5421L156.787 72.8031L157.471 73.2775C159.053 74.3734 160.817 75.2001 162.686 75.7218L163.181 75.8605L163.141 76.3366C163.089 77.0138 163.286 77.6868 163.698 78.2363C164.074 78.7479 164.603 79.1354 165.214 79.3467C165.825 79.5579 166.489 79.5826 167.115 79.4175C167.402 79.3397 167.676 79.2197 167.925 79.0618L181.086 70.7365C181.408 70.5352 181.683 70.2713 181.894 69.9615C182.105 69.6517 182.246 69.3029 182.31 68.9373C182.374 68.5642 182.36 68.1825 182.27 67.8147C182.179 67.4468 182.014 67.1002 181.783 66.7949C181.407 66.2832 180.878 65.8956 180.266 65.6842C179.655 65.4729 178.991 65.448 178.365 65.613C178.078 65.6908 177.805 65.8107 177.556 65.9683L172.534 69.1462C171.708 69.6675 170.805 70.0637 169.855 70.3211C165.595 71.4458 161.064 69.8815 158.506 66.4031C157.74 65.391 157.19 64.2409 156.89 63.0203C156.589 61.7997 156.544 60.5332 156.757 59.2951C156.967 58.0815 157.437 56.9235 158.136 55.8953C158.836 54.867 159.75 53.991 160.819 53.3235L173.978 44.9973C174.804 44.4753 175.708 44.0786 176.658 43.8212C180.918 42.6964 185.45 44.2607 188.007 47.739C188.774 48.7511 189.323 49.9013 189.624 51.1219C189.924 52.3425 189.969 53.609 189.757 54.8472C189.684 55.2536 189.583 55.6548 189.454 56.0479L189.213 56.787L188.529 56.3133C186.947 55.2168 185.183 54.3897 183.313 53.868L182.819 53.7291L182.859 53.2531C182.91 52.576 182.713 51.9032 182.302 51.3534C181.926 50.8419 181.397 50.4543 180.785 50.243C180.174 50.0318 179.511 50.0071 178.884 50.1722C178.597 50.2501 178.324 50.3701 178.074 50.5279L164.914 58.8536C164.592 59.0547 164.317 59.3186 164.106 59.6283C163.895 59.9381 163.754 60.2869 163.69 60.6524C163.626 61.0256 163.64 61.4073 163.73 61.7752C163.82 62.1431 163.986 62.4898 164.216 62.795C164.592 63.3067 165.122 63.6943 165.733 63.9057C166.344 64.117 167.008 64.1419 167.635 63.9769C167.922 63.8989 168.195 63.779 168.445 63.6212L173.466 60.4446C174.292 59.9226 175.195 59.526 176.144 59.2687C180.405 58.1441 184.936 59.7084 187.494 63.1869C188.26 64.1989 188.81 65.349 189.11 66.5696C189.41 67.7901 189.456 69.0566 189.243 70.2947C189.032 71.5084 188.562 72.6664 187.863 73.6949C187.163 74.7233 186.25 75.5995 185.181 76.2674L172.022 84.5928C171.195 85.1149 170.292 85.5115 169.342 85.7689Z" fill="white"/>
</g>
<path d="M20.5586 56.1908L39.7316 11.0391H50.4181L31.2176 56.1908H20.5586ZM59.3501 35.3493C59.3501 32.4696 58.9926 29.8526 58.2776 27.4983C57.5846 25.1441 56.6056 22.9159 55.3461 20.8139C54.0811 18.6909 52.5796 16.5994 50.8361 14.5394C49.0926 12.4584 48.2181 11.418 48.2181 11.418L56.3196 5.26953C56.3196 5.26953 57.3811 6.44672 59.5041 8.80094C61.6491 11.1342 63.5741 13.6986 65.2791 16.4943C66.9786 19.29 68.2711 22.2328 69.1566 25.3227C70.0366 28.4127 70.4766 31.7549 70.4766 35.3493C70.4766 39.0909 70.0146 42.5172 69.0906 45.6282C68.1666 48.7181 66.8411 51.6819 65.1196 54.5199C63.3926 57.3364 61.4951 59.8587 59.4106 62.0868C57.3536 64.3363 56.3196 65.4605 56.3196 65.4605L48.2181 59.312C48.2181 59.312 49.0816 58.272 50.8031 56.1908C52.5466 54.131 54.0646 52.0289 55.3461 49.8847C56.6496 47.7197 57.6341 45.4705 58.3106 43.1373C59.0036 40.783 59.3501 38.1871 59.3501 35.3493Z" fill="#303030"/>
<path d="M82.5234 56.1908L101.696 11.0391H112.383L93.1824 56.1908H82.5234ZM121.315 35.3493C121.315 32.4696 120.957 29.8526 120.242 27.4983C119.549 25.1441 118.57 22.9159 117.311 20.8139C116.046 18.6909 114.544 16.5994 112.801 14.5394C111.057 12.4584 110.183 11.418 110.183 11.418L118.284 5.26953C118.284 5.26953 119.346 6.44672 121.469 8.80094C123.614 11.1342 125.539 13.6986 127.238 16.4943C128.943 19.29 130.236 22.2328 131.121 25.3227C132.001 28.4127 132.441 31.7549 132.441 35.3493C132.441 39.0909 131.979 42.5172 131.055 45.6282C130.131 48.7181 128.806 51.6819 127.084 54.5199C125.357 57.3364 123.454 59.8587 121.375 62.0868C119.318 64.3363 118.284 65.4605 118.284 65.4605L110.183 59.312C110.183 59.312 111.046 58.272 112.768 56.1908C114.511 54.131 116.024 52.0289 117.311 49.8847C118.614 47.7197 119.599 45.4705 120.27 43.1373C120.968 40.783 121.315 38.1871 121.315 35.3493Z" fill="url(#paint0_linear_73_138)"/>
<path d="M11.165 112.381C11.165 115.261 11.5115 117.878 12.2045 120.232C12.8975 122.587 13.8765 124.825 15.136 126.948C16.3955 129.05 17.897 131.131 19.646 133.191C21.3895 135.272 22.2585 136.312 22.2585 136.312L14.157 142.461C14.157 142.461 13.0845 141.284 10.9395 138.93C8.8165 136.596 6.908 134.032 5.203 131.237C3.498 128.441 2.2055 125.498 1.3255 122.408C0.44 119.318 0 115.976 0 112.381C0 108.64 0.462 105.224 1.386 102.134C2.3155 99.0225 3.6355 96.0586 5.3625 93.242C7.084 90.4046 8.976 87.8713 11.0385 85.6432C13.1175 83.3943 14.157 82.2695 14.157 82.2695L22.2585 88.418C22.2585 88.418 21.3895 89.4586 19.646 91.5392C17.919 93.5995 16.4065 95.7121 15.103 97.8769C13.8215 100.021 12.8425 102.271 12.1715 104.625C11.5005 106.958 11.165 109.543 11.165 112.381ZM130.279 112.35C130.279 109.47 129.921 106.853 129.206 104.499C128.513 102.144 127.534 99.9157 126.274 97.8142C125.009 95.6906 123.508 93.5995 121.764 91.5392C120.021 89.4586 119.147 88.418 119.147 88.418L127.248 82.2695C127.248 82.2695 128.31 83.4465 130.433 85.8011C132.578 88.1342 134.502 90.6988 136.207 93.4945C137.907 96.2901 139.199 99.2326 140.085 102.323C140.965 105.413 141.405 108.755 141.405 112.35C141.405 116.091 140.943 119.518 140.019 122.628C139.095 125.718 137.77 128.682 136.048 131.52C134.321 134.337 132.423 136.859 130.339 139.087C128.282 141.337 127.248 142.461 127.248 142.461L119.147 136.312C119.147 136.312 120.01 135.272 121.731 133.191C123.475 131.131 124.993 129.029 126.274 126.885C127.578 124.72 128.562 122.471 129.239 120.138C129.932 117.784 130.279 115.188 130.279 112.35Z" fill="#F7402C"/>
<path d="M48.9 123.8C54.3676 123.8 58.8 119.368 58.8 113.9C58.8 108.432 54.3676 104 48.9 104C43.4324 104 39 108.432 39 113.9C39 119.368 43.4324 123.8 48.9 123.8Z" fill="#303030"/>
<path d="M108.9 117.8C114.367 117.8 118.8 113.368 118.8 107.9C118.8 102.432 114.367 98 108.9 98C103.432 98 99 102.432 99 107.9C99 113.368 103.432 117.8 108.9 117.8Z" fill="url(#paint1_linear_73_138)"/>
<defs>
<linearGradient id="paint0_linear_73_138" x1="97.5" y1="49" x2="160" y2="76.5" gradientUnits="userSpaceOnUse">
<stop stop-color="#303030"/>
<stop offset="1" stop-color="#FF2525"/>
</linearGradient>
<linearGradient id="paint1_linear_73_138" x1="101" y1="112" x2="156.5" y2="86" gradientUnits="userSpaceOnUse">
<stop stop-color="#303030"/>
<stop offset="1" stop-color="#FF2727"/>
</linearGradient>
<clipPath id="clip0_73_138">
<rect width="47.3544" height="55.0943" fill="white" transform="translate(149 37.5577) rotate(-0.674859)"/>
</clipPath>
</defs>
</svg>
